<?xml version="1.0" encoding="UTF-8" standalone="no"?>
<!DOCTYPE svg PUBLIC "-//W3C//DTD SVG 1.1//EN" "http://www.w3.org/Graphics/SVG/1.1/DTD/svg11.dtd">
<svg width="225px" height="380px" version="1.1" xmlns="http://www.w3.org/2000/svg" xmlns:xlink="http://www.w3.org/1999/xlink" xml:space="preserve" xmlns:serif="http://www.serif.com/" style="fill-rule:evenodd;clip-rule:evenodd;stroke-linecap:round;stroke-linejoin:round;stroke-miterlimit:1.5;">
    <rect x="0" y="0" width="225" height="380" style="fill:rgb(126,211,239);"/>
    <rect x="15" y="15" width="195" height="350" style="fill:rgb(237,27,49);"/>
    <path d="M54.906,15.209c0.026,-0.229 0.054,-0.431 0.084,-0.606c0.209,-1.12 0.528,-2.025 0.957,-2.715c0.69,-1.315 1.797,-2.487 3.321,-3.515c1.497,-1.042 3.365,-1.576 5.605,-1.602c2.747,0.026 4.987,0.84 6.719,2.442c1.731,1.614 2.825,3.613 3.281,5.996l-4.57,0c-0.352,-1.146 -0.99,-2.123 -1.914,-2.93c-0.964,-0.768 -2.136,-1.165 -3.516,-1.191c-1.016,0.026 -1.888,0.227 -2.617,0.605c-0.742,0.391 -1.341,0.879 -1.797,1.465c-0.498,0.544 -0.847,1.228 -1.046,2.051l-4.507,0Zm27.33,0l-4.316,0l0,-8.204l4.316,0l0,8.204Zm15.586,0l-4.316,0l0,-8.204l4.316,0l0,8.204Zm19.994,0l-3.957,0l-0.783,-2.364l-0.078,0l-0.783,2.364l-3.976,0l2.982,-8.204l3.613,0l2.982,8.204Zm8.926,0c0.025,-0.229 0.054,-0.431 0.084,-0.606c0.209,-1.12 0.528,-2.025 0.957,-2.715c0.69,-1.315 1.797,-2.487 3.321,-3.515c1.497,-1.042 3.365,-1.576 5.605,-1.602c2.266,0.026 4.154,0.56 5.664,1.602c1.497,1.028 2.578,2.2 3.242,3.515c0.482,0.69 0.814,1.595 0.996,2.715c0.027,0.175 0.051,0.377 0.074,0.606l-4.505,0c-0.219,-0.823 -0.578,-1.507 -1.076,-2.051c-0.43,-0.586 -1.003,-1.074 -1.719,-1.465c-0.755,-0.378 -1.647,-0.579 -2.676,-0.605c-1.016,0.026 -1.888,0.227 -2.617,0.605c-0.742,0.391 -1.341,0.879 -1.797,1.465c-0.498,0.544 -0.847,1.228 -1.046,2.051l-4.507,0Zm24.187,0c-0.001,-0.039 -0.001,-0.078 -0.001,-0.118c0,-2.487 0.827,-4.492 2.48,-6.015c1.602,-1.511 3.874,-2.279 6.817,-2.305c3.541,0.078 6.621,1.061 9.238,2.949l-2.402,3.555c-2.136,-1.406 -4.486,-2.135 -7.051,-2.187c-1.328,0 -2.435,0.332 -3.321,0.996c-0.924,0.69 -1.399,1.718 -1.425,3.086c0,0.013 0,0.026 0,0.039l-4.335,0Z" style="fill:rgb(237,27,49);fill-rule:nonzero;"/>
    <path d="M59.468,15c-0.048,0.168 -0.088,0.341 -0.122,0.521c-0.209,1.016 -0.313,2.923 -0.313,5.723c0,2.799 0.104,4.694 0.313,5.683c0.182,0.99 0.553,1.791 1.113,2.403c0.456,0.586 1.055,1.061 1.797,1.425c0.729,0.43 1.601,0.645 2.617,0.645c2.422,0 4.232,-1.296 5.43,-3.887l4.57,0c-0.625,2.644 -1.816,4.675 -3.574,6.094c-1.81,1.406 -3.952,2.109 -6.426,2.109c-2.24,-0.052 -4.108,-0.599 -5.605,-1.64c-1.524,-1.003 -2.631,-2.162 -3.321,-3.477c-0.208,-0.429 -0.397,-0.84 -0.566,-1.23c-0.156,-0.404 -0.287,-0.912 -0.391,-1.524c-0.195,-1.146 -0.293,-3.346 -0.293,-6.601c0,-2.954 0.078,-5.035 0.234,-6.244l4.537,0Zm87.195,0c0.135,1.209 0.202,3.29 0.202,6.244c0,3.255 -0.084,5.455 -0.254,6.601c-0.182,1.146 -0.514,2.064 -0.996,2.754c-0.664,1.315 -1.745,2.474 -3.242,3.477c-1.51,1.041 -3.398,1.588 -5.664,1.64c-2.24,-0.052 -4.108,-0.599 -5.605,-1.64c-1.524,-1.003 -2.631,-2.162 -3.321,-3.477c-0.208,-0.429 -0.397,-0.84 -0.566,-1.23c-0.156,-0.404 -0.287,-0.912 -0.391,-1.524c-0.195,-1.146 -0.293,-3.346 -0.293,-6.601c0,-2.954 0.078,-5.035 0.234,-6.244l4.536,0c-0.047,0.168 -0.087,0.341 -0.121,0.521c-0.209,1.016 -0.313,2.923 -0.313,5.723c0,2.799 0.104,4.694 0.313,5.683c0.182,0.99 0.553,1.791 1.113,2.403c0.456,0.586 1.055,1.061 1.797,1.425c0.729,0.43 1.601,0.645 2.617,0.645c1.029,0 1.921,-0.215 2.676,-0.645c0.716,-0.364 1.289,-0.839 1.719,-1.425c0.559,-0.612 0.944,-1.413 1.152,-2.403c0.195,-0.989 0.293,-2.884 0.293,-5.683c0,-2.8 -0.098,-4.707 -0.293,-5.723c-0.039,-0.18 -0.084,-0.353 -0.135,-0.521l4.542,0Zm8.606,0c-0.002,0.056 -0.004,0.112 -0.005,0.17c0,0.82 0.319,1.562 0.957,2.226c0.638,0.677 1.66,1.146 3.066,1.406c0.781,0.131 1.849,0.28 3.203,0.45c2.67,0.364 4.642,1.321 5.918,2.871c1.263,1.523 1.895,3.294 1.895,5.312c-0.143,5.443 -3.477,8.203 -10,8.281c-4.219,0 -7.845,-1.302 -10.879,-3.906l2.832,-3.242c2.265,1.862 4.961,2.806 8.086,2.832c3.698,-0.052 5.573,-1.374 5.625,-3.965c0.026,-2.122 -1.211,-3.398 -3.711,-3.828c-1.146,-0.156 -2.402,-0.332 -3.77,-0.527c-2.448,-0.404 -4.31,-1.309 -5.586,-2.715c-1.315,-1.445 -1.972,-3.203 -1.972,-5.274c0,-0.03 0,-0.061 0,-0.091l4.341,0Zm-61.763,0l4.316,0l0,20.482l-4.316,0l0,-12.441l-11.27,0l0,12.441l-4.316,0l0,-20.482l4.316,0l0,4.213l11.27,0l0,-4.213Zm20.284,0l3.95,0l7.446,20.482l-4.551,0l-2.207,-6.367l-10.801,0l-2.188,6.367l-4.57,0l7.446,-20.482l3.969,0l-3.407,10.287l8.32,0l-3.407,-10.287Zm-38.959,0c0.015,0.069 0.029,0.139 0.042,0.209l-4.57,0c-0.022,-0.071 -0.044,-0.14 -0.068,-0.209l4.596,0Z" style="fill:rgb(126,211,239);fill-rule:nonzero;"/>
    <g transform="matrix(0.0086177,0,0,0.0086177,110.755,359.247)">
        <g transform="matrix(4.16667,0,0,4.16667,1309.43,1030.89)">
            <path d="M0,-146.13c-19.168,-53.667 -53.859,-88.167 -92.191,-122.679c-7.666,-7.667 -61.157,-60.899 -64.989,-60.899c-23.013,26.318 -41.949,74.135 -61.117,97.149c-22.998,22.999 -42.396,21.37 -73.075,17.536c-88.166,-11.499 -107.332,-107.398 -191.678,-111.232c-18.005,97.238 -110.451,292.569 -26.221,369.9c3.296,4.575 6.926,9.047 10.888,13.429c84.345,92 264.524,126.504 379.535,72.826c107.346,-49.833 157.178,-164.851 118.848,-276.03" style="fill-rule:nonzero;"/>
        </g>
        <g transform="matrix(4.16667,0,0,4.16667,-715.198,1292.3)">
            <path d="M0,-170.383c16.608,17.597 42.69,21.646 65.581,24.469c28.217,3.482 56.681,5.647 85.111,5.974c60.013,0.692 120.344,-6.843 175.826,-30.529c16.279,-6.951 31.946,-15.022 47.155,-24.071c7.454,-4.435 14.887,-8.971 21.927,-14.04c3.585,-2.58 7.21,-5.026 10.905,-7.448c4.186,-2.744 8.791,-4.761 12.976,-7.493c-1.398,0.379 -2.796,0.757 -4.194,1.135c0.454,0.012 0.907,0.024 1.361,0.037c-1.968,-0.815 -3.935,-1.63 -5.902,-2.445c31.484,26.584 39.233,68.118 31.473,107.15c-7.837,39.419 -28.05,78.516 -57.511,106.098c-39.063,36.572 -92.571,60.547 -146.761,56.201c-28.69,-2.301 -56.211,-13.695 -82.379,-24.927c-13.317,-5.716 -26.995,-10.625 -40.173,-16.647c-12.568,-5.744 -24.228,-13.061 -35.645,-20.801c-6.05,-4.103 -11.994,-8.361 -17.868,-12.712c-5.587,-4.139 -12.743,5.184 -7.424,9.623c21.472,17.919 44.609,34.048 70.445,45.048c26.976,11.485 53.063,24.865 81.469,32.667c55.708,15.301 113.044,-1.094 159.45,-33.477c19.149,-13.362 36.458,-29.031 50.638,-47.596c12.804,-16.762 22.665,-35.483 30.55,-54.996c15.349,-37.984 22.336,-84.822 4.022,-123.006c-4.458,-9.294 -10.657,-17.954 -17.889,-25.283c-3.786,-3.838 -7.989,-7.205 -12.282,-10.452c-6.196,-4.686 -13.568,2.988 -17.871,6.537c-10.287,8.482 -23.158,14.601 -34.737,21.151c-11.653,6.593 -23.598,12.722 -35.72,18.407c-24.649,11.562 -50.671,20.032 -77.336,25.481c-30.432,6.218 -62.023,8.115 -93.021,8.68c-29.5,0.538 -58.694,-1.298 -88.095,-3.353c-21.992,-1.537 -47.514,-3.632 -65.354,-18.109c-6.071,-4.926 -14.3,2.823 -8.727,8.727" style="fill:white;fill-rule:nonzero;"/>
        </g>
        <g transform="matrix(4.16667,0,0,4.16667,-597.044,526.512)">
            <path d="M0,29.231c11.077,17.898 20.858,36.689 35.309,52.227c4.005,4.306 11.811,2.181 13.2,-3.485c4.323,-17.639 13.838,-33.345 22.153,-49.305l-10.515,2.757c20.524,12.815 37.137,30.966 56.085,45.887c4.893,3.852 10.241,3.119 14.002,-1.805c9.266,-12.13 11.123,-28.056 20.156,-40.285c-4.514,0.581 -9.027,1.163 -13.54,1.744c14.028,15.201 25.538,33.041 42.446,45.334c5.022,3.652 11.154,-0.453 13.003,-5.29c6.444,-16.853 16.422,-31.956 28.367,-45.398l-11.211,0c16.822,13.496 28.424,32.32 44.5,46.618c4.657,4.141 12.482,2.719 14.195,-3.749c5.558,-20.976 7.046,-44.083 18.941,-62.793l-12.22,1.574c13.422,11.858 23.894,26.621 37.628,38.18c5.544,4.666 14.243,1.804 14.427,-5.975c0.482,-20.428 7.406,-38.914 11.632,-58.655l-7.837,5.966c0.454,-0.022 0.907,-0.044 1.361,-0.066c-2.32,-1.331 -4.64,-2.662 -6.96,-3.992c9.496,13.528 22.19,23.078 33.582,34.805c3.636,3.743 10.972,3.217 13.403,-1.728c9.828,-19.987 16.411,-41.532 22.925,-62.771c3.35,-10.918 -14.243,-15.747 -17.049,-4.7c-5.131,20.2 -10.691,40.408 -20.614,58.857c4.468,-0.576 8.936,-1.152 13.403,-1.727c-6.6,-6.282 -13.864,-11.794 -20.638,-17.88c-3.454,-3.103 -6.76,-6.433 -9.487,-10.2c-2.998,-4.142 -4.313,-6.577 -9.926,-6.852c-3.693,-0.18 -6.774,2.633 -7.837,5.967c-6.395,20.064 -12.943,41.75 -12.861,62.976c4.81,-1.992 9.619,-3.984 14.427,-5.976c-13.989,-11.135 -25.491,-25.09 -38.575,-37.232c-3.834,-3.556 -9.37,-2.675 -12.22,1.575c-13.21,19.699 -15.541,43.849 -21.884,66.132c4.732,-1.249 9.463,-2.499 14.196,-3.748c-15.823,-14.6 -28.989,-31.722 -45.301,-45.818c-3.209,-2.773 -8.065,-3.289 -11.211,0c-13.817,14.447 -25.401,31.422 -33.334,49.789c4.633,-0.597 9.268,-1.194 13.901,-1.791c-15.903,-12.631 -27.318,-28.822 -40.98,-43.624c-4.138,-4.483 -10.334,-2.445 -13.541,1.745c-9.286,12.135 -11.604,27.747 -20.663,39.989c4.066,-1.066 8.132,-2.132 12.198,-3.198c-19.849,-15.014 -37.881,-31.978 -59.131,-45.157c-3.423,-2.123 -8.627,-0.893 -10.515,2.757c-8.863,17.142 -19.248,34.018 -24.112,52.863l13.2,-3.484c-13.306,-14.661 -23.559,-31.729 -35.444,-47.508c-4.815,-6.393 -15.483,-0.739 -11.034,6.45" style="fill:white;fill-rule:nonzero;"/>
        </g>
        <g transform="matrix(4.16667,0,0,4.16667,-362.834,1180.18)">
            <path d="M0,30.333c6.25,-7.9 10.55,-16.999 16.553,-25.046l-11.095,0c9.731,17.093 14.531,36.662 27.572,51.815c2.651,3.08 7.656,2.608 10.378,0c11.6,-11.116 23.176,-22.765 36.592,-31.729c-3.328,-0.873 -6.655,-1.745 -9.983,-2.618c8.378,17.739 17.469,37.031 32.712,50.004c4.473,3.807 10.57,3.225 13.876,-1.788c6.271,-9.512 11.743,-19.52 18.011,-29.034c5.887,-8.936 13.777,-19.463 24.184,-23.391c-3.118,-1.269 -6.236,-2.537 -9.353,-3.806c10.905,21.503 17.851,46.335 34.849,64.17c4.447,4.666 13.567,2.652 14.933,-3.942c3.601,-17.379 13.501,-34.978 25.195,-48.223l-10.476,0c5.389,4.444 9.049,10.612 13.028,16.269c4.688,6.663 9.754,12.826 16.42,17.59c3.77,2.692 9.725,0.752 11.841,-3.105c11.537,-21.035 21.013,-42.937 30.428,-64.972l-12.015,1.548c9.902,9.819 15.467,23.106 28.499,29.627c4.355,2.178 10.992,0.618 12.011,-4.887c3.928,-21.219 14.034,-40.301 19.576,-61.045c-3.581,1.457 -7.162,2.914 -10.743,4.371c5.648,3.824 10.701,8.368 16.177,12.424c7.781,5.763 16.055,-7.798 7.688,-13.15c-5.73,-3.665 -10.93,-8 -16.483,-11.903c-3.919,-2.755 -9.57,0.099 -10.743,4.37c-5.669,20.651 -16.467,39.687 -21.24,60.586c4.003,-1.629 8.007,-3.258 12.011,-4.886c-10.965,-6.063 -17.712,-17.224 -25.935,-26.325c-3.163,-3.501 -9.885,-2.765 -12.014,1.548c-10.558,21.393 -20.438,43.166 -32.162,63.958c3.947,-1.035 7.893,-2.07 11.84,-3.105c-10.812,-7.919 -18.408,-19.83 -27.708,-29.391c-2.914,-2.996 -7.523,-2.684 -10.476,0c-15.504,14.091 -26.073,34.013 -31.949,53.951c4.977,-1.315 9.955,-2.629 14.932,-3.943c-14.646,-18.143 -22.306,-39.536 -33.181,-59.896c-1.6,-2.996 -6.045,-5.12 -9.354,-3.806c-13.576,5.394 -22.993,14.575 -31.548,26.211c-7.83,10.651 -13.494,22.765 -21.501,33.269c4.626,-0.596 9.251,-1.193 13.876,-1.788c-13.588,-13.275 -23.326,-28.386 -32.605,-44.876c-2.526,-4.489 -7.863,-4.27 -11.46,-1.476c-13.306,10.329 -26.316,20.743 -38.128,32.811l10.378,0c-12.466,-13.579 -17.354,-32.412 -26.855,-47.923c-2.659,-4.341 -8.354,-3.93 -11.095,0c-5.469,7.843 -9.026,16.768 -14.256,24.744c-3.455,5.269 4.833,11.801 8.798,6.788" style="fill:white;fill-rule:nonzero;"/>
        </g>
    </g>
    <g transform="matrix(0.998805,0,0,0.998805,0.134447,37.2271)">
        <circle cx="112.5" cy="190" r="105.126"/>
    </g>
    <g transform="matrix(1,0,0,1,-9.24895,-5.66278)">
        <g transform="matrix(12,0,0,12,35.1022,54.7353)">
            <path d="M0.115,0l0,-0.616l-0.118,0l0,-0.096l0.338,0l0,0.096l-0.118,0l0,0.616l-0.102,0Z" style="fill:rgb(126,211,239);fill-rule:nonzero;"/>
        </g>
        <g transform="matrix(12,0,0,12,39.0862,54.7353)">
            <rect x="0.051" y="-0.712" width="0.102" height="0.712" style="fill:rgb(126,211,239);fill-rule:nonzero;"/>
        </g>
        <g transform="matrix(12,0,0,12,41.5342,54.7353)">
            <path d="M0.048,0l0,-0.712l0.098,0l0.131,0.377l0.002,0l0.13,-0.377l0.099,0l0,0.712l-0.102,0l0,-0.433l-0.002,0l-0.101,0.306l-0.051,0l-0.1,-0.306l-0.002,0l0,0.433l-0.102,0Z" style="fill:rgb(126,211,239);fill-rule:nonzero;"/>
        </g>
        <g transform="matrix(12,0,0,12,48.2062,54.7353)">
            <path d="M0.048,0l0,-0.712l0.304,0l0,0.096l-0.202,0l0,0.209l0.176,0l0,0.096l-0.176,0l0,0.209l0.202,0l0,0.102l-0.304,0Z" style="fill:rgb(126,211,239);fill-rule:nonzero;"/>
        </g>
        <g transform="matrix(12,0,0,12,52.6462,54.7353)">
            <path d="M0.577,-0.712l-0.106,0.712l-0.096,0l-0.078,-0.462l-0.002,0l-0.077,0.462l-0.096,0l-0.106,-0.712l0.108,0l0.051,0.452l0.002,0l0.08,-0.452l0.078,0l0.083,0.463l0.002,0l0.049,-0.463l0.108,0Z" style="fill:rgb(126,211,239);fill-rule:nonzero;"/>
        </g>
        <g transform="matrix(12,0,0,12,59.4022,54.7353)">
            <path d="M0.254,-0.249l-0.05,-0.258l-0.002,0l-0.05,0.258l0.102,0Zm-0.252,0.249l0.159,-0.712l0.085,0l0.159,0.712l-0.102,0l-0.03,-0.153l-0.139,0l-0.03,0.153l-0.102,0Z" style="fill:rgb(126,211,239);fill-rule:nonzero;"/>
        </g>
        <g transform="matrix(12,0,0,12,64.2862,54.7353)">
            <path d="M0.15,-0.616l0,0.222l0.058,0c0.018,0 0.032,-0.003 0.043,-0.008c0.011,-0.005 0.019,-0.012 0.025,-0.021c0.005,-0.009 0.009,-0.021 0.011,-0.034c0.002,-0.014 0.003,-0.03 0.003,-0.048c0,-0.018 -0.001,-0.034 -0.003,-0.047c-0.002,-0.014 -0.006,-0.026 -0.012,-0.036c-0.013,-0.019 -0.037,-0.028 -0.072,-0.028l-0.053,0Zm-0.102,0.616l0,-0.712l0.164,0c0.12,0 0.18,0.07 0.18,0.209c0,0.042 -0.007,0.078 -0.02,0.107c-0.013,0.029 -0.035,0.053 -0.068,0.071l0.11,0.325l-0.108,0l-0.095,-0.304l-0.061,0l0,0.304l-0.102,0Z" style="fill:rgb(126,211,239);fill-rule:nonzero;"/>
        </g>
        <g transform="matrix(12,0,0,12,69.3982,54.7353)">
            <path d="M0.048,0l0,-0.712l0.153,0c0.028,0 0.053,0.004 0.074,0.011c0.021,0.007 0.041,0.02 0.058,0.039c0.017,0.019 0.029,0.04 0.036,0.065c0.007,0.025 0.01,0.059 0.01,0.102c0,0.032 -0.002,0.059 -0.006,0.081c-0.003,0.022 -0.011,0.043 -0.023,0.062c-0.014,0.023 -0.033,0.041 -0.056,0.054c-0.023,0.013 -0.054,0.02 -0.092,0.02l-0.052,0l0,0.278l-0.102,0Zm0.102,-0.616l0,0.242l0.049,0c0.021,0 0.037,-0.003 0.048,-0.009c0.011,-0.006 0.02,-0.014 0.025,-0.025c0.005,-0.01 0.009,-0.022 0.01,-0.037c0.001,-0.015 0.001,-0.031 0.001,-0.049c0,-0.017 0,-0.033 -0.001,-0.048c-0.001,-0.015 -0.004,-0.028 -0.009,-0.039c-0.005,-0.011 -0.013,-0.02 -0.024,-0.026c-0.011,-0.006 -0.026,-0.009 -0.046,-0.009l-0.053,0Z" style="fill:rgb(126,211,239);fill-rule:nonzero;"/>
        </g>
    </g>
    <g transform="matrix(1,0,0,1,66.9218,-5.59078)">
        <g transform="matrix(12,0,0,12,29.9542,54.7353)">
            <path d="M0.048,0l0,-0.712l0.151,0c0.059,0 0.103,0.016 0.134,0.048c0.03,0.032 0.045,0.077 0.045,0.136l0,0.333c0,0.067 -0.016,0.116 -0.048,0.147c-0.033,0.032 -0.079,0.048 -0.14,0.048l-0.142,0Zm0.102,-0.616l0,0.52l0.047,0c0.029,0 0.049,-0.007 0.061,-0.022c0.012,-0.014 0.018,-0.036 0.018,-0.067l0,-0.343c0,-0.028 -0.006,-0.05 -0.017,-0.065c-0.011,-0.015 -0.032,-0.023 -0.062,-0.023l-0.047,0Z" style="fill:rgb(126,211,239);fill-rule:nonzero;"/>
        </g>
        <g transform="matrix(12,0,0,12,34.9222,54.7353)">
            <path d="M0.254,-0.249l-0.05,-0.258l-0.002,0l-0.05,0.258l0.102,0Zm-0.252,0.249l0.159,-0.712l0.085,0l0.159,0.712l-0.102,0l-0.03,-0.153l-0.139,0l-0.03,0.153l-0.102,0Z" style="fill:rgb(126,211,239);fill-rule:nonzero;"/>
        </g>
        <g transform="matrix(12,0,0,12,39.8062,54.7353)">
            <path d="M0.048,0l0,-0.712l0.098,0l0.131,0.377l0.002,0l0.13,-0.377l0.099,0l0,0.712l-0.102,0l0,-0.433l-0.002,0l-0.101,0.306l-0.051,0l-0.1,-0.306l-0.002,0l0,0.433l-0.102,0Z" style="fill:rgb(126,211,239);fill-rule:nonzero;"/>
        </g>
        <g transform="matrix(12,0,0,12,46.4782,54.7353)">
            <path d="M0.048,0l0,-0.712l0.153,0c0.028,0 0.053,0.004 0.074,0.011c0.021,0.007 0.041,0.02 0.058,0.039c0.017,0.019 0.029,0.04 0.036,0.065c0.007,0.025 0.01,0.059 0.01,0.102c0,0.032 -0.002,0.059 -0.006,0.081c-0.003,0.022 -0.011,0.043 -0.023,0.062c-0.014,0.023 -0.033,0.041 -0.056,0.054c-0.023,0.013 -0.054,0.02 -0.092,0.02l-0.052,0l0,0.278l-0.102,0Zm0.102,-0.616l0,0.242l0.049,0c0.021,0 0.037,-0.003 0.048,-0.009c0.011,-0.006 0.02,-0.014 0.025,-0.025c0.005,-0.01 0.009,-0.022 0.01,-0.037c0.001,-0.015 0.001,-0.031 0.001,-0.049c0,-0.017 0,-0.033 -0.001,-0.048c-0.001,-0.015 -0.004,-0.028 -0.009,-0.039c-0.005,-0.011 -0.013,-0.02 -0.024,-0.026c-0.011,-0.006 -0.026,-0.009 -0.046,-0.009l-0.053,0Z" style="fill:rgb(126,211,239);fill-rule:nonzero;"/>
        </g>
        <g transform="matrix(12,0,0,12,51.3622,54.7353)">
            <path d="M0.048,0l0,-0.712l0.304,0l0,0.096l-0.202,0l0,0.209l0.176,0l0,0.096l-0.176,0l0,0.209l0.202,0l0,0.102l-0.304,0Z" style="fill:rgb(126,211,239);fill-rule:nonzero;"/>
        </g>
        <g transform="matrix(12,0,0,12,55.8022,54.7353)">
            <path d="M0.044,0l0,-0.712l0.098,0l0.154,0.429l0.002,0l0,-0.429l0.102,0l0,0.712l-0.096,0l-0.156,-0.428l-0.002,0l0,0.428l-0.102,0Z" style="fill:rgb(126,211,239);fill-rule:nonzero;"/>
        </g>
    </g>
    <g transform="matrix(1.15883,0,0,1.1202,-32.3451,-38.2433)">
        <path d="M203.651,320.834c0,-1.115 -0.875,-2.019 -1.952,-2.019l-23.585,0c-1.078,0 -1.952,0.904 -1.952,2.019l0,33.438c0,1.115 0.874,2.02 1.952,2.02l23.585,0c1.077,0 1.952,-0.905 1.952,-2.02l0,-33.438Z"/>
    </g>
    <g transform="matrix(1,0,0,1,-8.7356,272.695)">
        <g transform="matrix(12,0,0,12,36.7642,54.7353)">
            <path d="M0.048,0l0,-0.712l0.102,0l0,0.325l0.002,0l0.149,-0.325l0.102,0l-0.139,0.285l0.165,0.427l-0.108,0l-0.116,-0.316l-0.055,0.103l0,0.213l-0.102,0Z" style="fill:rgb(126,211,239);fill-rule:nonzero;"/>
        </g>
        <g transform="matrix(12,0,0,12,41.8762,54.7353)">
            <rect x="0.051" y="-0.712" width="0.102" height="0.712" style="fill:rgb(126,211,239);fill-rule:nonzero;"/>
        </g>
        <g transform="matrix(12,0,0,12,44.3242,54.7353)">
            <path d="M0.372,-0.203l0,0.044c0,0.022 -0.004,0.043 -0.013,0.063c-0.008,0.019 -0.019,0.037 -0.034,0.052c-0.015,0.015 -0.032,0.028 -0.051,0.037c-0.02,0.009 -0.041,0.013 -0.064,0.013c-0.019,0 -0.039,-0.003 -0.059,-0.008c-0.02,-0.005 -0.038,-0.015 -0.054,-0.028c-0.016,-0.013 -0.029,-0.03 -0.039,-0.051c-0.011,-0.021 -0.016,-0.048 -0.016,-0.081l0,-0.392c0,-0.023 0.004,-0.045 0.012,-0.065c0.008,-0.02 0.019,-0.037 0.034,-0.052c0.015,-0.015 0.032,-0.026 0.053,-0.034c0.02,-0.009 0.042,-0.013 0.067,-0.013c0.048,0 0.087,0.016 0.117,0.047c0.015,0.015 0.026,0.033 0.034,0.054c0.009,0.021 0.013,0.044 0.013,0.069l0,0.04l-0.102,0l0,-0.034c0,-0.02 -0.006,-0.037 -0.017,-0.052c-0.011,-0.015 -0.027,-0.022 -0.046,-0.022c-0.025,0 -0.042,0.008 -0.051,0.024c-0.008,0.015 -0.012,0.035 -0.012,0.059l0,0.364c0,0.021 0.004,0.038 0.013,0.052c0.009,0.014 0.026,0.021 0.049,0.021c0.007,0 0.014,-0.001 0.021,-0.003c0.008,-0.003 0.015,-0.007 0.022,-0.012c0.006,-0.005 0.011,-0.013 0.015,-0.022c0.004,-0.009 0.006,-0.021 0.006,-0.035l0,-0.035l0.102,0Z" style="fill:rgb(126,211,239);fill-rule:nonzero;"/>
        </g>
        <g transform="matrix(12,0,0,12,49.2082,54.7353)">
            <path d="M0.048,0l0,-0.712l0.102,0l0,0.325l0.002,0l0.149,-0.325l0.102,0l-0.139,0.285l0.165,0.427l-0.108,0l-0.116,-0.316l-0.055,0.103l0,0.213l-0.102,0Z" style="fill:rgb(126,211,239);fill-rule:nonzero;"/>
        </g>
    </g>
    <g transform="matrix(1,0,0,1,142.125,275.695)">
        <g transform="matrix(12,0,0,12,38.4382,54.7353)">
            <path d="M0.042,-0.544c0,-0.029 0.005,-0.054 0.015,-0.076c0.01,-0.022 0.023,-0.04 0.04,-0.055c0.016,-0.014 0.034,-0.025 0.054,-0.032c0.021,-0.007 0.041,-0.011 0.062,-0.011c0.021,0 0.041,0.004 0.062,0.011c0.02,0.007 0.038,0.018 0.055,0.032c0.016,0.015 0.029,0.033 0.039,0.055c0.01,0.022 0.015,0.047 0.015,0.076l0,0.376c0,0.03 -0.005,0.056 -0.015,0.077c-0.01,0.021 -0.023,0.039 -0.039,0.053c-0.017,0.015 -0.035,0.026 -0.055,0.033c-0.021,0.007 -0.041,0.011 -0.062,0.011c-0.021,0 -0.041,-0.004 -0.062,-0.011c-0.02,-0.007 -0.038,-0.018 -0.054,-0.033c-0.017,-0.014 -0.03,-0.032 -0.04,-0.053c-0.01,-0.021 -0.015,-0.047 -0.015,-0.077l0,-0.376Zm0.102,0.376c0,0.025 0.007,0.043 0.02,0.055c0.014,0.011 0.03,0.017 0.049,0.017c0.019,0 0.035,-0.006 0.048,-0.017c0.014,-0.012 0.021,-0.03 0.021,-0.055l0,-0.376c0,-0.025 -0.007,-0.043 -0.021,-0.054c-0.013,-0.012 -0.029,-0.018 -0.048,-0.018c-0.019,0 -0.035,0.006 -0.049,0.018c-0.013,0.011 -0.02,0.029 -0.02,0.054l0,0.376Z" style="fill:rgb(237,27,49);fill-rule:nonzero;"/>
        </g>
        <g transform="matrix(12,0,0,12,43.5502,54.7353)">
            <path d="M0.378,-0.712l0,0.552c0,0.023 -0.004,0.045 -0.013,0.064c-0.008,0.02 -0.02,0.038 -0.035,0.053c-0.015,0.015 -0.033,0.027 -0.053,0.036c-0.02,0.009 -0.041,0.013 -0.064,0.013c-0.023,0 -0.044,-0.004 -0.063,-0.013c-0.02,-0.009 -0.038,-0.021 -0.053,-0.036c-0.015,-0.015 -0.027,-0.033 -0.036,-0.053c-0.009,-0.019 -0.013,-0.041 -0.013,-0.064l0,-0.552l0.102,0l0,0.542c0,0.025 0.006,0.044 0.018,0.056c0.012,0.012 0.027,0.018 0.045,0.018c0.018,0 0.033,-0.006 0.045,-0.018c0.012,-0.012 0.018,-0.031 0.018,-0.056l0,-0.542l0.102,0Z" style="fill:rgb(237,27,49);fill-rule:nonzero;"/>
        </g>
        <g transform="matrix(12,0,0,12,48.6622,54.7353)">
            <path d="M0.115,0l0,-0.616l-0.118,0l0,-0.096l0.338,0l0,0.096l-0.118,0l0,0.616l-0.102,0Z" style="fill:rgb(237,27,49);fill-rule:nonzero;"/>
        </g>
    </g>
    <g transform="matrix(1,0,0,1,137.814,-5.73478)">
        <g transform="matrix(12,0,0,12,35.1022,54.7353)">
            <path d="M0.15,-0.616l0,0.222l0.058,0c0.018,0 0.032,-0.003 0.043,-0.008c0.011,-0.005 0.019,-0.012 0.025,-0.021c0.005,-0.009 0.009,-0.021 0.011,-0.034c0.002,-0.014 0.003,-0.03 0.003,-0.048c0,-0.018 -0.001,-0.034 -0.003,-0.047c-0.002,-0.014 -0.006,-0.026 -0.012,-0.036c-0.013,-0.019 -0.037,-0.028 -0.072,-0.028l-0.053,0Zm-0.102,0.616l0,-0.712l0.164,0c0.12,0 0.18,0.07 0.18,0.209c0,0.042 -0.007,0.078 -0.02,0.107c-0.013,0.029 -0.035,0.053 -0.068,0.071l0.11,0.325l-0.108,0l-0.095,-0.304l-0.061,0l0,0.304l-0.102,0Z" style="fill:rgb(126,211,239);fill-rule:nonzero;"/>
        </g>
        <g transform="matrix(12,0,0,12,40.2142,54.7353)">
            <path d="M0.254,-0.249l-0.05,-0.258l-0.002,0l-0.05,0.258l0.102,0Zm-0.252,0.249l0.159,-0.712l0.085,0l0.159,0.712l-0.102,0l-0.03,-0.153l-0.139,0l-0.03,0.153l-0.102,0Z" style="fill:rgb(126,211,239);fill-rule:nonzero;"/>
        </g>
        <g transform="matrix(12,0,0,12,44.4382,54.7353)">
            <path d="M0.115,0l0,-0.616l-0.118,0l0,-0.096l0.338,0l0,0.096l-0.118,0l0,0.616l-0.102,0Z" style="fill:rgb(126,211,239);fill-rule:nonzero;"/>
        </g>
        <g transform="matrix(12,0,0,12,48.4222,54.7353)">
            <rect x="0.051" y="-0.712" width="0.102" height="0.712" style="fill:rgb(126,211,239);fill-rule:nonzero;"/>
        </g>
        <g transform="matrix(12,0,0,12,50.8702,54.7353)">
            <path d="M0.042,-0.544c0,-0.029 0.005,-0.054 0.015,-0.076c0.01,-0.022 0.023,-0.04 0.04,-0.055c0.016,-0.014 0.034,-0.025 0.054,-0.032c0.021,-0.007 0.041,-0.011 0.062,-0.011c0.021,0 0.041,0.004 0.062,0.011c0.02,0.007 0.038,0.018 0.055,0.032c0.016,0.015 0.029,0.033 0.039,0.055c0.01,0.022 0.015,0.047 0.015,0.076l0,0.376c0,0.03 -0.005,0.056 -0.015,0.077c-0.01,0.021 -0.023,0.039 -0.039,0.053c-0.017,0.015 -0.035,0.026 -0.055,0.033c-0.021,0.007 -0.041,0.011 -0.062,0.011c-0.021,0 -0.041,-0.004 -0.062,-0.011c-0.02,-0.007 -0.038,-0.018 -0.054,-0.033c-0.017,-0.014 -0.03,-0.032 -0.04,-0.053c-0.01,-0.021 -0.015,-0.047 -0.015,-0.077l0,-0.376Zm0.102,0.376c0,0.025 0.007,0.043 0.02,0.055c0.014,0.011 0.03,0.017 0.049,0.017c0.019,0 0.035,-0.006 0.048,-0.017c0.014,-0.012 0.021,-0.03 0.021,-0.055l0,-0.376c0,-0.025 -0.007,-0.043 -0.021,-0.054c-0.013,-0.012 -0.029,-0.018 -0.048,-0.018c-0.019,0 -0.035,0.006 -0.049,0.018c-0.013,0.011 -0.02,0.029 -0.02,0.054l0,0.376Z" style="fill:rgb(126,211,239);fill-rule:nonzero;"/>
        </g>
    </g>
    <path d="M68.697,343.157l-31.854,0" style="fill:none;stroke:black;stroke-width:1px;"/>
    <path d="M44.943,105.843l0.314,-33.655" style="fill:none;stroke:black;stroke-width:1px;"/>
    <g transform="matrix(1,0,0,1,67.2427,0)">
        <path d="M44.943,105.843l0.314,-33.655" style="fill:none;stroke:black;stroke-width:1px;"/>
    </g>
    <g transform="matrix(1,0,0,1,137.203,0)">
        <path d="M44.943,105.843l0.314,-33.655" style="fill:none;stroke:black;stroke-width:1px;"/>
    </g>
</svg>
