<?xml version="1.0" encoding="UTF-8" standalone="no"?>
<!DOCTYPE svg PUBLIC "-//W3C//DTD SVG 1.1//EN" "http://www.w3.org/Graphics/SVG/1.1/DTD/svg11.dtd">
<svg width="420px" height="380px" version="1.1" xmlns="http://www.w3.org/2000/svg" xmlns:xlink="http://www.w3.org/1999/xlink" xml:space="preserve" xmlns:serif="http://www.serif.com/" style="fill-rule:evenodd;clip-rule:evenodd;stroke-linecap:round;stroke-linejoin:round;stroke-miterlimit:1.5;">
    <g id="Layer-1" serif:id="Layer 1" transform="matrix(1,0,0,1,0,-477.638)">
        <g id="rect420" transform="matrix(4.86103,0,0,1.04323,-1.50159e-05,-20.6503)">
            <rect x="0" y="477.638" width="86.4" height="364.252" style="fill:rgb(126,211,239);"/>
        </g>
        <g transform="matrix(1.0199,0,0,1,-8.3589,477.638)">
            <rect x="143.993" y="0" width="276.007" height="380" style="fill:rgb(237,27,49);"/>
        </g>
        <g transform="matrix(1.57434,0,0,2.25735,-35.4008,384.516)">
            <rect x="118.558" y="68.719" width="162.608" height="113.407" style="fill:rgb(13,13,18);"/>
        </g>
        <g transform="matrix(1,0,0,1,13.9362,14.0195)">
            <g transform="matrix(7.11376e-17,1.16176,-1.0625,6.50594e-17,410.564,367.148)">
                <path d="M380,304c0,-8.831 -6.557,-16 -14.633,-16l-106.734,0c-8.076,0 -14.633,7.169 -14.633,16c0,8.831 6.557,16 14.633,16l106.734,0c8.076,0 14.633,-7.169 14.633,-16Z" style="fill:rgb(13,13,18);"/>
                <clipPath id="_clip1">
                    <path d="M380,304c0,-8.831 -6.557,-16 -14.633,-16l-106.734,0c-8.076,0 -14.633,7.169 -14.633,16c0,8.831 6.557,16 14.633,16l106.734,0c8.076,0 14.633,-7.169 14.633,-16Z"/>
                </clipPath>
                <g clip-path="url(#_clip1)">
                    <g transform="matrix(0.860759,0,0,0.941176,124.113,-8.73342)">
                        <g transform="matrix(12,0,0,12,150.378,335.893)">
                            <path d="M0.183,-0.4l0.163,0c0.041,-0.001 0.071,-0.012 0.091,-0.035c0.02,-0.021 0.03,-0.047 0.03,-0.078c-0.001,-0.037 -0.013,-0.064 -0.036,-0.081c-0.018,-0.014 -0.044,-0.022 -0.079,-0.022l-0.169,0l0,0.216Zm-0.108,-0.312l0.278,0c0.059,0 0.108,0.016 0.145,0.047c0.045,0.035 0.069,0.086 0.071,0.152c-0.001,0.096 -0.047,0.162 -0.138,0.197l0.165,0.316l-0.128,0l-0.147,-0.304l-0.138,0l0,0.304l-0.108,0l0,-0.712Z" style="fill:white;fill-rule:nonzero;"/>
                        </g>
                        <g transform="matrix(12,0,0,12,157.696,335.893)">
                            <path d="M0.306,-0.392l0.253,0l0,0.145c-0.001,0.071 -0.026,0.131 -0.073,0.179c-0.048,0.048 -0.108,0.073 -0.181,0.074c-0.056,-0.001 -0.103,-0.015 -0.14,-0.041c-0.038,-0.025 -0.066,-0.054 -0.083,-0.087c-0.005,-0.011 -0.01,-0.021 -0.014,-0.031c-0.004,-0.01 -0.007,-0.023 -0.01,-0.038c-0.005,-0.029 -0.007,-0.084 -0.007,-0.165c0,-0.083 0.002,-0.138 0.007,-0.166c0.005,-0.028 0.013,-0.051 0.024,-0.068c0.017,-0.033 0.045,-0.062 0.083,-0.088c0.037,-0.026 0.084,-0.039 0.14,-0.04c0.069,0.001 0.125,0.021 0.168,0.061c0.043,0.041 0.071,0.091 0.082,0.15l-0.114,0c-0.009,-0.028 -0.025,-0.053 -0.048,-0.073c-0.024,-0.019 -0.053,-0.029 -0.088,-0.03c-0.025,0.001 -0.047,0.006 -0.065,0.015c-0.019,0.01 -0.034,0.022 -0.045,0.037c-0.014,0.015 -0.023,0.035 -0.028,0.059c-0.005,0.025 -0.008,0.073 -0.008,0.143c0,0.07 0.003,0.117 0.008,0.142c0.005,0.025 0.014,0.045 0.028,0.06c0.011,0.015 0.026,0.027 0.045,0.036c0.018,0.011 0.04,0.016 0.065,0.016c0.042,0 0.077,-0.014 0.104,-0.043c0.028,-0.027 0.042,-0.063 0.042,-0.108l0,-0.037l-0.145,0l0,-0.102Z" style="fill:white;fill-rule:nonzero;"/>
                        </g>
                        <g transform="matrix(12,0,0,12,165.015,335.893)">
                            <path d="M0.075,-0.712l0.276,0c0.07,0.001 0.123,0.018 0.158,0.053c0.035,0.035 0.053,0.081 0.053,0.138c0.001,0.029 -0.006,0.057 -0.021,0.084c-0.007,0.013 -0.018,0.025 -0.032,0.036c-0.014,0.012 -0.031,0.023 -0.052,0.033l0,0.002c0.039,0.01 0.068,0.03 0.088,0.061c0.018,0.031 0.028,0.066 0.028,0.103c-0.001,0.061 -0.02,0.11 -0.058,0.146c-0.037,0.037 -0.084,0.056 -0.14,0.056l-0.3,0l0,-0.712Zm0.108,0.396l0,0.214l0.166,0c0.04,-0.001 0.069,-0.012 0.088,-0.033c0.019,-0.021 0.028,-0.045 0.028,-0.074c0,-0.029 -0.009,-0.054 -0.028,-0.075c-0.019,-0.021 -0.048,-0.031 -0.088,-0.032l-0.166,0Zm0,-0.3l0,0.204l0.156,0c0.039,0 0.068,-0.01 0.087,-0.031c0.019,-0.019 0.028,-0.043 0.028,-0.071c0,-0.029 -0.009,-0.053 -0.028,-0.073c-0.019,-0.018 -0.048,-0.028 -0.087,-0.029l-0.156,0Z" style="fill:white;fill-rule:nonzero;"/>
                        </g>
                    </g>
                </g>
                <path d="M380,304c0,-8.831 -6.557,-16 -14.633,-16l-106.734,0c-8.076,0 -14.633,7.169 -14.633,16c0,8.831 6.557,16 14.633,16l106.734,0c8.076,0 14.633,-7.169 14.633,-16Z" style="fill:none;stroke:black;stroke-width:0.9px;"/>
            </g>
            <g id="ored" transform="matrix(6.12323e-17,1,-1,6.12323e-17,396.387,662.757)">
                <circle cx="43.2" cy="308.162" r="11.339" style="fill:rgb(0,0,255);"/>
            </g>
            <g id="ogreen" transform="matrix(6.12323e-17,1,-1,6.12323e-17,396.387,704.372)">
                <circle cx="43.2" cy="308.162" r="11.339" style="fill:rgb(0,0,255);"/>
            </g>
            <g id="oblue" transform="matrix(6.12323e-17,1,-1,6.12323e-17,396.387,745.987)">
                <circle cx="43.2" cy="308.162" r="11.339" style="fill:rgb(0,0,255);"/>
            </g>
        </g>
        <g transform="matrix(1,0,0,1,-0.0833332,14.0195)">
            <g transform="matrix(7.11376e-17,1.16176,-1.0625,6.50594e-17,370.583,367.148)">
                <path d="M380,304c0,-8.831 -6.557,-16 -14.633,-16l-106.734,0c-8.076,0 -14.633,7.169 -14.633,16c0,8.831 6.557,16 14.633,16l106.734,0c8.076,0 14.633,-7.169 14.633,-16Z" style="fill:rgb(13,13,18);"/>
                <clipPath id="_clip2">
                    <path d="M380,304c0,-8.831 -6.557,-16 -14.633,-16l-106.734,0c-8.076,0 -14.633,7.169 -14.633,16c0,8.831 6.557,16 14.633,16l106.734,0c8.076,0 14.633,-7.169 14.633,-16Z"/>
                </clipPath>
                <g clip-path="url(#_clip2)">
                    <g transform="matrix(0.860759,0,0,0.941176,124.113,-8.73342)">
                        <g transform="matrix(12,0,0,12,150.378,335.893)">
                            <path d="M0.465,-0.311l-0.282,0l0,0.311l-0.108,0l0,-0.712l0.108,0l0,0.305l0.282,0l0,-0.305l0.108,0l0,0.712l-0.108,0l0,-0.311Z" style="fill:white;fill-rule:nonzero;"/>
                        </g>
                        <g transform="matrix(12,0,0,12,158.153,335.893)">
                            <path d="M0.084,-0.173c0.057,0.047 0.124,0.07 0.202,0.071c0.093,-0.001 0.139,-0.034 0.141,-0.099c0,-0.053 -0.031,-0.085 -0.093,-0.096c-0.029,-0.004 -0.06,-0.008 -0.094,-0.013c-0.061,-0.01 -0.108,-0.033 -0.14,-0.068c-0.033,-0.036 -0.049,-0.08 -0.049,-0.132c0,-0.062 0.02,-0.112 0.062,-0.15c0.04,-0.038 0.097,-0.057 0.17,-0.058c0.089,0.002 0.166,0.027 0.231,0.074l-0.06,0.089c-0.053,-0.035 -0.112,-0.054 -0.176,-0.055c-0.033,0 -0.061,0.008 -0.083,0.025c-0.023,0.017 -0.035,0.043 -0.036,0.077c0,0.021 0.008,0.039 0.024,0.056c0.016,0.017 0.042,0.028 0.077,0.035c0.019,0.003 0.046,0.007 0.08,0.011c0.067,0.009 0.116,0.033 0.148,0.072c0.031,0.038 0.047,0.082 0.047,0.133c-0.003,0.136 -0.087,0.205 -0.25,0.207c-0.105,0 -0.196,-0.033 -0.272,-0.098l0.071,-0.081Z" style="fill:white;fill-rule:nonzero;"/>
                        </g>
                        <g transform="matrix(12,0,0,12,165.038,335.893)">
                            <path d="M0.075,-0.712l0.108,0l0,0.61l0.347,0l0,0.102l-0.455,0l0,-0.712Z" style="fill:white;fill-rule:nonzero;"/>
                        </g>
                    </g>
                </g>
            </g>
            <g id="ohue" transform="matrix(6.12323e-17,1,-1,6.12323e-17,355.406,662.757)">
                <circle cx="43.2" cy="308.162" r="11.339" style="fill:rgb(0,0,255);"/>
            </g>
            <g id="osat" transform="matrix(6.12323e-17,1,-1,6.12323e-17,355.406,704.372)">
                <circle cx="43.2" cy="308.162" r="11.339" style="fill:rgb(0,0,255);"/>
            </g>
            <g id="oval" transform="matrix(6.12323e-17,1,-1,6.12323e-17,355.406,745.987)">
                <circle cx="43.2" cy="308.162" r="11.339" style="fill:rgb(0,0,255);"/>
            </g>
        </g>
        <g transform="matrix(12,0,0,12,98.9,538.181)">
            <path d="M0.199,-0.293l-0.214,-0.419l0.114,0l0.151,0.316l0.151,-0.316l0.114,0l-0.214,0.419l0,0.293l-0.102,0l0,-0.293Z" style="fill:rgb(237,27,49);fill-rule:nonzero;"/>
        </g>
        <g transform="matrix(1,0,0,1,6.35033,505.713)">
            <path d="M40.988,87.184l0,-36.646" style="fill:none;stroke:black;stroke-width:2px;stroke-linejoin:bevel;"/>
        </g>
        <g transform="matrix(1,0,0,1,1,-2)">
            <g transform="matrix(6.12323e-17,1,-1.50175,9.19557e-17,177.912,601.371)">
                <path d="M40.988,87.184l0,-36.646" style="fill:none;stroke:black;stroke-width:1.57px;stroke-linejoin:bevel;"/>
            </g>
            <g transform="matrix(1,0,0,1,-227.516,-184.425)">
                <g transform="matrix(1,0,0,1,44.1348,472.206)">
                    <g transform="matrix(12,0,0,12,216.782,339.8)">
                        <path d="M0.409,-0.255l-0.103,-0.311l-0.002,0l-0.103,0.311l0.208,0Zm0.031,0.096l-0.27,0l-0.055,0.159l-0.114,0l0.259,-0.712l0.09,0l0.259,0.712l-0.114,0l-0.055,-0.159Z" style="fill:rgb(237,27,49);fill-rule:nonzero;"/>
                    </g>
                    <g transform="matrix(12,0,0,12,223.884,339.8)">
                        <path d="M0.062,-0.712l0.108,0l0,0.459c0.001,0.049 0.015,0.086 0.042,0.111c0.027,0.027 0.061,0.04 0.103,0.04c0.042,0 0.077,-0.013 0.104,-0.04c0.027,-0.025 0.04,-0.062 0.041,-0.111l0,-0.459l0.108,0l0,0.471c-0.001,0.075 -0.026,0.134 -0.073,0.178c-0.047,0.045 -0.107,0.068 -0.18,0.069c-0.071,-0.001 -0.131,-0.024 -0.179,-0.069c-0.049,-0.044 -0.073,-0.103 -0.074,-0.178l0,-0.471Z" style="fill:rgb(237,27,49);fill-rule:nonzero;"/>
                    </g>
                    <g transform="matrix(12,0,0,12,231.442,339.8)">
                        <path d="M0.196,-0.616l-0.195,0l0,-0.096l0.498,0l0,0.096l-0.195,0l0,0.616l-0.108,0l0,-0.616Z" style="fill:rgb(237,27,49);fill-rule:nonzero;"/>
                    </g>
                    <g transform="matrix(12,0,0,12,237.225,339.8)">
                        <path d="M0.051,-0.356c0,-0.083 0.002,-0.138 0.007,-0.166c0.005,-0.028 0.013,-0.051 0.024,-0.068c0.017,-0.033 0.045,-0.062 0.083,-0.088c0.037,-0.026 0.084,-0.039 0.14,-0.04c0.057,0.001 0.104,0.014 0.142,0.04c0.037,0.026 0.064,0.055 0.081,0.088c0.012,0.017 0.02,0.04 0.025,0.068c0.004,0.028 0.006,0.083 0.006,0.166c0,0.081 -0.002,0.136 -0.006,0.165c-0.005,0.029 -0.013,0.052 -0.025,0.069c-0.017,0.033 -0.044,0.062 -0.081,0.087c-0.038,0.026 -0.085,0.04 -0.142,0.041c-0.056,-0.001 -0.103,-0.015 -0.14,-0.041c-0.038,-0.025 -0.066,-0.054 -0.083,-0.087c-0.005,-0.011 -0.01,-0.021 -0.014,-0.031c-0.004,-0.01 -0.007,-0.023 -0.01,-0.038c-0.005,-0.029 -0.007,-0.084 -0.007,-0.165Zm0.108,0c0,0.07 0.003,0.117 0.008,0.142c0.005,0.025 0.014,0.045 0.028,0.06c0.011,0.015 0.026,0.027 0.045,0.036c0.018,0.011 0.04,0.016 0.065,0.016c0.026,0 0.048,-0.005 0.067,-0.016c0.018,-0.009 0.032,-0.021 0.043,-0.036c0.014,-0.015 0.024,-0.035 0.029,-0.06c0.005,-0.025 0.007,-0.072 0.007,-0.142c0,-0.07 -0.002,-0.118 -0.007,-0.143c-0.005,-0.024 -0.015,-0.044 -0.029,-0.059c-0.011,-0.015 -0.025,-0.027 -0.043,-0.037c-0.019,-0.009 -0.041,-0.014 -0.067,-0.015c-0.025,0.001 -0.047,0.006 -0.065,0.015c-0.019,0.01 -0.034,0.022 -0.045,0.037c-0.014,0.015 -0.023,0.035 -0.028,0.059c-0.005,0.025 -0.008,0.073 -0.008,0.143Z" style="fill:rgb(237,27,49);fill-rule:nonzero;"/>
                    </g>
                </g>
                <g id="ix" transform="matrix(0.683281,0,0,0.683281,244.981,776.575)">
                    <circle cx="43.2" cy="73.162" r="11.339" style="fill:white;"/>
                </g>
            </g>
            <g transform="matrix(1,0,0,1,-172.482,-184.425)">
                <g transform="matrix(1,0,0,1,44.1348,472.206)">
                    <g transform="matrix(12,0,0,12,218.798,339.8)">
                        <path d="M0.196,-0.616l-0.195,0l0,-0.096l0.498,0l0,0.096l-0.195,0l0,0.616l-0.108,0l0,-0.616Z" style="fill:rgb(237,27,49);fill-rule:nonzero;"/>
                    </g>
                    <g transform="matrix(12,0,0,12,224.798,339.8)">
                        <path d="M0.183,-0.4l0.163,0c0.041,-0.001 0.071,-0.012 0.091,-0.035c0.02,-0.021 0.03,-0.047 0.03,-0.078c-0.001,-0.037 -0.013,-0.064 -0.036,-0.081c-0.018,-0.014 -0.044,-0.022 -0.079,-0.022l-0.169,0l0,0.216Zm-0.108,-0.312l0.278,0c0.059,0 0.108,0.016 0.145,0.047c0.045,0.035 0.069,0.086 0.071,0.152c-0.001,0.096 -0.047,0.162 -0.138,0.197l0.165,0.316l-0.128,0l-0.147,-0.304l-0.138,0l0,0.304l-0.108,0l0,-0.712Z" style="fill:rgb(237,27,49);fill-rule:nonzero;"/>
                    </g>
                    <g transform="matrix(12,0,0,12,232.116,339.8)">
                        <rect x="0.075" y="-0.712" width="0.108" height="0.712" style="fill:rgb(237,27,49);fill-rule:nonzero;"/>
                    </g>
                    <g transform="matrix(12,0,0,12,235.21,339.8)">
                        <path d="M0.306,-0.392l0.253,0l0,0.145c-0.001,0.071 -0.026,0.131 -0.073,0.179c-0.048,0.048 -0.108,0.073 -0.181,0.074c-0.056,-0.001 -0.103,-0.015 -0.14,-0.041c-0.038,-0.025 -0.066,-0.054 -0.083,-0.087c-0.005,-0.011 -0.01,-0.021 -0.014,-0.031c-0.004,-0.01 -0.007,-0.023 -0.01,-0.038c-0.005,-0.029 -0.007,-0.084 -0.007,-0.165c0,-0.083 0.002,-0.138 0.007,-0.166c0.005,-0.028 0.013,-0.051 0.024,-0.068c0.017,-0.033 0.045,-0.062 0.083,-0.088c0.037,-0.026 0.084,-0.039 0.14,-0.04c0.069,0.001 0.125,0.021 0.168,0.061c0.043,0.041 0.071,0.091 0.082,0.15l-0.114,0c-0.009,-0.028 -0.025,-0.053 -0.048,-0.073c-0.024,-0.019 -0.053,-0.029 -0.088,-0.03c-0.025,0.001 -0.047,0.006 -0.065,0.015c-0.019,0.01 -0.034,0.022 -0.045,0.037c-0.014,0.015 -0.023,0.035 -0.028,0.059c-0.005,0.025 -0.008,0.073 -0.008,0.143c0,0.07 0.003,0.117 0.008,0.142c0.005,0.025 0.014,0.045 0.028,0.06c0.011,0.015 0.026,0.027 0.045,0.036c0.018,0.011 0.04,0.016 0.065,0.016c0.042,0 0.077,-0.014 0.104,-0.043c0.028,-0.027 0.042,-0.063 0.042,-0.108l0,-0.037l-0.145,0l0,-0.102Z" style="fill:rgb(237,27,49);fill-rule:nonzero;"/>
                    </g>
                </g>
                <g id="ix1" serif:id="ix" transform="matrix(0.683281,0,0,0.683281,244.981,776.74)">
                    <circle cx="43.2" cy="73.162" r="11.339" style="fill:white;"/>
                </g>
            </g>
        </g>
        <g transform="matrix(1,0,0,1,61.1151,505.713)">
            <path d="M40.988,87.184l0,-36.646" style="fill:none;stroke:black;stroke-width:2px;stroke-linejoin:bevel;"/>
        </g>
        <g transform="matrix(12,0,0,12,44.2832,538.181)">
            <path d="M0.112,0l-0.122,0l0.218,-0.365l-0.204,-0.347l0.122,0l0.142,0.247l0.142,-0.247l0.122,0l-0.204,0.347l0.218,0.365l-0.122,0l-0.156,-0.265l-0.156,0.265Z" style="fill:rgb(237,27,49);fill-rule:nonzero;"/>
        </g>
        <g transform="matrix(7.2647,0,0,7.2647,-191.107,-1970.63)">
            <g transform="matrix(5,0,0,5,36.7413,342.686)">
                <path d="M0.196,-0.616l-0.195,0l0,-0.096l0.498,0l0,0.096l-0.195,0l0,0.616l-0.108,0l0,-0.616Z" style="fill:rgb(237,27,49);fill-rule:nonzero;"/>
            </g>
            <g transform="matrix(5,0,0,5,39.2413,342.686)">
                <path d="M0.075,-0.712l0.455,0l0,0.102l-0.347,0l0,0.203l0.296,0l0,0.096l-0.296,0l0,0.209l0.347,0l0,0.102l-0.455,0l0,-0.712Z" style="fill:rgb(237,27,49);fill-rule:nonzero;"/>
            </g>
            <g transform="matrix(5,0,0,5,42.0221,342.686)">
                <path d="M0.112,0l-0.122,0l0.218,-0.365l-0.204,-0.347l0.122,0l0.142,0.247l0.142,-0.247l0.122,0l-0.204,0.347l0.218,0.365l-0.122,0l-0.156,-0.265l-0.156,0.265Z" style="fill:rgb(237,27,49);fill-rule:nonzero;"/>
            </g>
        </g>
        <g transform="matrix(7.2647,0,0,7.2647,-122.957,-1970.63)">
            <g transform="matrix(5,0,0,5,36.7413,342.686)">
                <path d="M0.196,-0.616l-0.195,0l0,-0.096l0.498,0l0,0.096l-0.195,0l0,0.616l-0.108,0l0,-0.616Z" style="fill:rgb(126,211,239);fill-rule:nonzero;"/>
            </g>
            <g transform="matrix(5,0,0,5,39.2413,342.686)">
                <path d="M0.075,-0.712l0.455,0l0,0.102l-0.347,0l0,0.203l0.296,0l0,0.096l-0.296,0l0,0.209l0.347,0l0,0.102l-0.455,0l0,-0.712Z" style="fill:rgb(126,211,239);fill-rule:nonzero;"/>
            </g>
            <g transform="matrix(5,0,0,5,42.0221,342.686)">
                <path d="M0.112,0l-0.122,0l0.218,-0.365l-0.204,-0.347l0.122,0l0.142,0.247l0.142,-0.247l0.122,0l-0.204,0.347l0.218,0.365l-0.122,0l-0.156,-0.265l-0.156,0.265Z" style="fill:rgb(126,211,239);fill-rule:nonzero;"/>
            </g>
        </g>
        <g transform="matrix(0.0086177,0,0,0.0086177,72.7549,834.685)">
            <g transform="matrix(4.16667,0,0,4.16667,1309.43,1030.89)">
                <path d="M0,-146.13c-19.168,-53.667 -53.859,-88.167 -92.191,-122.679c-7.666,-7.667 -61.157,-60.899 -64.989,-60.899c-23.013,26.318 -41.949,74.135 -61.117,97.149c-22.998,22.999 -42.396,21.37 -73.075,17.536c-88.166,-11.499 -107.332,-107.398 -191.678,-111.232c-18.005,97.238 -110.451,292.569 -26.221,369.9c3.296,4.575 6.926,9.047 10.888,13.429c84.345,92 264.524,126.504 379.535,72.826c107.346,-49.833 157.178,-164.851 118.848,-276.03" style="fill:rgb(237,27,49);fill-rule:nonzero;"/>
            </g>
            <g transform="matrix(4.16667,0,0,4.16667,-715.198,1292.3)">
                <path d="M0,-170.383c16.608,17.597 42.69,21.646 65.581,24.469c28.217,3.482 56.681,5.647 85.111,5.974c60.013,0.692 120.344,-6.843 175.826,-30.529c16.279,-6.951 31.946,-15.022 47.155,-24.071c7.454,-4.435 14.887,-8.971 21.927,-14.04c3.585,-2.58 7.21,-5.026 10.905,-7.448c4.186,-2.744 8.791,-4.761 12.976,-7.493c-1.398,0.379 -2.796,0.757 -4.194,1.135c0.454,0.012 0.907,0.024 1.361,0.037c-1.968,-0.815 -3.935,-1.63 -5.902,-2.445c31.484,26.584 39.233,68.118 31.473,107.15c-7.837,39.419 -28.05,78.516 -57.511,106.098c-39.063,36.572 -92.571,60.547 -146.761,56.201c-28.69,-2.301 -56.211,-13.695 -82.379,-24.927c-13.317,-5.716 -26.995,-10.625 -40.173,-16.647c-12.568,-5.744 -24.228,-13.061 -35.645,-20.801c-6.05,-4.103 -11.994,-8.361 -17.868,-12.712c-5.587,-4.139 -12.743,5.184 -7.424,9.623c21.472,17.919 44.609,34.048 70.445,45.048c26.976,11.485 53.063,24.865 81.469,32.667c55.708,15.301 113.044,-1.094 159.45,-33.477c19.149,-13.362 36.458,-29.031 50.638,-47.596c12.804,-16.762 22.665,-35.483 30.55,-54.996c15.349,-37.984 22.336,-84.822 4.022,-123.006c-4.458,-9.294 -10.657,-17.954 -17.889,-25.283c-3.786,-3.838 -7.989,-7.205 -12.282,-10.452c-6.196,-4.686 -13.568,2.988 -17.871,6.537c-10.287,8.482 -23.158,14.601 -34.737,21.151c-11.653,6.593 -23.598,12.722 -35.72,18.407c-24.649,11.562 -50.671,20.032 -77.336,25.481c-30.432,6.218 -62.023,8.115 -93.021,8.68c-29.5,0.538 -58.694,-1.298 -88.095,-3.353c-21.992,-1.537 -47.514,-3.632 -65.354,-18.109c-6.071,-4.926 -14.3,2.823 -8.727,8.727" style="fill:white;fill-rule:nonzero;"/>
            </g>
            <g transform="matrix(4.16667,0,0,4.16667,-597.044,526.512)">
                <path d="M0,29.231c11.077,17.898 20.858,36.689 35.309,52.227c4.005,4.306 11.811,2.181 13.2,-3.485c4.323,-17.639 13.838,-33.345 22.153,-49.305l-10.515,2.757c20.524,12.815 37.137,30.966 56.085,45.887c4.893,3.852 10.241,3.119 14.002,-1.805c9.266,-12.13 11.123,-28.056 20.156,-40.285c-4.514,0.581 -9.027,1.163 -13.54,1.744c14.028,15.201 25.538,33.041 42.446,45.334c5.022,3.652 11.154,-0.453 13.003,-5.29c6.444,-16.853 16.422,-31.956 28.367,-45.398l-11.211,0c16.822,13.496 28.424,32.32 44.5,46.618c4.657,4.141 12.482,2.719 14.195,-3.749c5.558,-20.976 7.046,-44.083 18.941,-62.793l-12.22,1.574c13.422,11.858 23.894,26.621 37.628,38.18c5.544,4.666 14.243,1.804 14.427,-5.975c0.482,-20.428 7.406,-38.914 11.632,-58.655l-7.837,5.966c0.454,-0.022 0.907,-0.044 1.361,-0.066c-2.32,-1.331 -4.64,-2.662 -6.96,-3.992c9.496,13.528 22.19,23.078 33.582,34.805c3.636,3.743 10.972,3.217 13.403,-1.728c9.828,-19.987 16.411,-41.532 22.925,-62.771c3.35,-10.918 -14.243,-15.747 -17.049,-4.7c-5.131,20.2 -10.691,40.408 -20.614,58.857c4.468,-0.576 8.936,-1.152 13.403,-1.727c-6.6,-6.282 -13.864,-11.794 -20.638,-17.88c-3.454,-3.103 -6.76,-6.433 -9.487,-10.2c-2.998,-4.142 -4.313,-6.577 -9.926,-6.852c-3.693,-0.18 -6.774,2.633 -7.837,5.967c-6.395,20.064 -12.943,41.75 -12.861,62.976c4.81,-1.992 9.619,-3.984 14.427,-5.976c-13.989,-11.135 -25.491,-25.09 -38.575,-37.232c-3.834,-3.556 -9.37,-2.675 -12.22,1.575c-13.21,19.699 -15.541,43.849 -21.884,66.132c4.732,-1.249 9.463,-2.499 14.196,-3.748c-15.823,-14.6 -28.989,-31.722 -45.301,-45.818c-3.209,-2.773 -8.065,-3.289 -11.211,0c-13.817,14.447 -25.401,31.422 -33.334,49.789c4.633,-0.597 9.268,-1.194 13.901,-1.791c-15.903,-12.631 -27.318,-28.822 -40.98,-43.624c-4.138,-4.483 -10.334,-2.445 -13.541,1.745c-9.286,12.135 -11.604,27.747 -20.663,39.989c4.066,-1.066 8.132,-2.132 12.198,-3.198c-19.849,-15.014 -37.881,-31.978 -59.131,-45.157c-3.423,-2.123 -8.627,-0.893 -10.515,2.757c-8.863,17.142 -19.248,34.018 -24.112,52.863l13.2,-3.484c-13.306,-14.661 -23.559,-31.729 -35.444,-47.508c-4.815,-6.393 -15.483,-0.739 -11.034,6.45" style="fill:white;fill-rule:nonzero;"/>
            </g>
            <g transform="matrix(4.16667,0,0,4.16667,-362.834,1180.18)">
                <path d="M0,30.333c6.25,-7.9 10.55,-16.999 16.553,-25.046l-11.095,0c9.731,17.093 14.531,36.662 27.572,51.815c2.651,3.08 7.656,2.608 10.378,0c11.6,-11.116 23.176,-22.765 36.592,-31.729c-3.328,-0.873 -6.655,-1.745 -9.983,-2.618c8.378,17.739 17.469,37.031 32.712,50.004c4.473,3.807 10.57,3.225 13.876,-1.788c6.271,-9.512 11.743,-19.52 18.011,-29.034c5.887,-8.936 13.777,-19.463 24.184,-23.391c-3.118,-1.269 -6.236,-2.537 -9.353,-3.806c10.905,21.503 17.851,46.335 34.849,64.17c4.447,4.666 13.567,2.652 14.933,-3.942c3.601,-17.379 13.501,-34.978 25.195,-48.223l-10.476,0c5.389,4.444 9.049,10.612 13.028,16.269c4.688,6.663 9.754,12.826 16.42,17.59c3.77,2.692 9.725,0.752 11.841,-3.105c11.537,-21.035 21.013,-42.937 30.428,-64.972l-12.015,1.548c9.902,9.819 15.467,23.106 28.499,29.627c4.355,2.178 10.992,0.618 12.011,-4.887c3.928,-21.219 14.034,-40.301 19.576,-61.045c-3.581,1.457 -7.162,2.914 -10.743,4.371c5.648,3.824 10.701,8.368 16.177,12.424c7.781,5.763 16.055,-7.798 7.688,-13.15c-5.73,-3.665 -10.93,-8 -16.483,-11.903c-3.919,-2.755 -9.57,0.099 -10.743,4.37c-5.669,20.651 -16.467,39.687 -21.24,60.586c4.003,-1.629 8.007,-3.258 12.011,-4.886c-10.965,-6.063 -17.712,-17.224 -25.935,-26.325c-3.163,-3.501 -9.885,-2.765 -12.014,1.548c-10.558,21.393 -20.438,43.166 -32.162,63.958c3.947,-1.035 7.893,-2.07 11.84,-3.105c-10.812,-7.919 -18.408,-19.83 -27.708,-29.391c-2.914,-2.996 -7.523,-2.684 -10.476,0c-15.504,14.091 -26.073,34.013 -31.949,53.951c4.977,-1.315 9.955,-2.629 14.932,-3.943c-14.646,-18.143 -22.306,-39.536 -33.181,-59.896c-1.6,-2.996 -6.045,-5.12 -9.354,-3.806c-13.576,5.394 -22.993,14.575 -31.548,26.211c-7.83,10.651 -13.494,22.765 -21.501,33.269c4.626,-0.596 9.251,-1.193 13.876,-1.788c-13.588,-13.275 -23.326,-28.386 -32.605,-44.876c-2.526,-4.489 -7.863,-4.27 -11.46,-1.476c-13.306,10.329 -26.316,20.743 -38.128,32.811l10.378,0c-12.466,-13.579 -17.354,-32.412 -26.855,-47.923c-2.659,-4.341 -8.354,-3.93 -11.095,0c-5.469,7.843 -9.026,16.768 -14.256,24.744c-3.455,5.269 4.833,11.801 8.798,6.788" style="fill:white;fill-rule:nonzero;"/>
            </g>
        </g>
        <g transform="matrix(0.0086177,0,0,0.0086177,277.505,834.685)">
            <g transform="matrix(4.16667,0,0,4.16667,1309.43,1030.89)">
                <path d="M0,-146.13c-19.168,-53.667 -53.859,-88.167 -92.191,-122.679c-7.666,-7.667 -61.157,-60.899 -64.989,-60.899c-23.013,26.318 -41.949,74.135 -61.117,97.149c-22.998,22.999 -42.396,21.37 -73.075,17.536c-88.166,-11.499 -107.332,-107.398 -191.678,-111.232c-18.005,97.238 -110.451,292.569 -26.221,369.9c3.296,4.575 6.926,9.047 10.888,13.429c84.345,92 264.524,126.504 379.535,72.826c107.346,-49.833 157.178,-164.851 118.848,-276.03" style="fill:rgb(126,211,239);fill-rule:nonzero;"/>
            </g>
            <g transform="matrix(4.16667,0,0,4.16667,-715.198,1292.3)">
                <path d="M0,-170.383c16.608,17.597 42.69,21.646 65.581,24.469c28.217,3.482 56.681,5.647 85.111,5.974c60.013,0.692 120.344,-6.843 175.826,-30.529c16.279,-6.951 31.946,-15.022 47.155,-24.071c7.454,-4.435 14.887,-8.971 21.927,-14.04c3.585,-2.58 7.21,-5.026 10.905,-7.448c4.186,-2.744 8.791,-4.761 12.976,-7.493c-1.398,0.379 -2.796,0.757 -4.194,1.135c0.454,0.012 0.907,0.024 1.361,0.037c-1.968,-0.815 -3.935,-1.63 -5.902,-2.445c31.484,26.584 39.233,68.118 31.473,107.15c-7.837,39.419 -28.05,78.516 -57.511,106.098c-39.063,36.572 -92.571,60.547 -146.761,56.201c-28.69,-2.301 -56.211,-13.695 -82.379,-24.927c-13.317,-5.716 -26.995,-10.625 -40.173,-16.647c-12.568,-5.744 -24.228,-13.061 -35.645,-20.801c-6.05,-4.103 -11.994,-8.361 -17.868,-12.712c-5.587,-4.139 -12.743,5.184 -7.424,9.623c21.472,17.919 44.609,34.048 70.445,45.048c26.976,11.485 53.063,24.865 81.469,32.667c55.708,15.301 113.044,-1.094 159.45,-33.477c19.149,-13.362 36.458,-29.031 50.638,-47.596c12.804,-16.762 22.665,-35.483 30.55,-54.996c15.349,-37.984 22.336,-84.822 4.022,-123.006c-4.458,-9.294 -10.657,-17.954 -17.889,-25.283c-3.786,-3.838 -7.989,-7.205 -12.282,-10.452c-6.196,-4.686 -13.568,2.988 -17.871,6.537c-10.287,8.482 -23.158,14.601 -34.737,21.151c-11.653,6.593 -23.598,12.722 -35.72,18.407c-24.649,11.562 -50.671,20.032 -77.336,25.481c-30.432,6.218 -62.023,8.115 -93.021,8.68c-29.5,0.538 -58.694,-1.298 -88.095,-3.353c-21.992,-1.537 -47.514,-3.632 -65.354,-18.109c-6.071,-4.926 -14.3,2.823 -8.727,8.727" style="fill:white;fill-rule:nonzero;"/>
            </g>
            <g transform="matrix(4.16667,0,0,4.16667,-597.044,526.512)">
                <path d="M0,29.231c11.077,17.898 20.858,36.689 35.309,52.227c4.005,4.306 11.811,2.181 13.2,-3.485c4.323,-17.639 13.838,-33.345 22.153,-49.305l-10.515,2.757c20.524,12.815 37.137,30.966 56.085,45.887c4.893,3.852 10.241,3.119 14.002,-1.805c9.266,-12.13 11.123,-28.056 20.156,-40.285c-4.514,0.581 -9.027,1.163 -13.54,1.744c14.028,15.201 25.538,33.041 42.446,45.334c5.022,3.652 11.154,-0.453 13.003,-5.29c6.444,-16.853 16.422,-31.956 28.367,-45.398l-11.211,0c16.822,13.496 28.424,32.32 44.5,46.618c4.657,4.141 12.482,2.719 14.195,-3.749c5.558,-20.976 7.046,-44.083 18.941,-62.793l-12.22,1.574c13.422,11.858 23.894,26.621 37.628,38.18c5.544,4.666 14.243,1.804 14.427,-5.975c0.482,-20.428 7.406,-38.914 11.632,-58.655l-7.837,5.966c0.454,-0.022 0.907,-0.044 1.361,-0.066c-2.32,-1.331 -4.64,-2.662 -6.96,-3.992c9.496,13.528 22.19,23.078 33.582,34.805c3.636,3.743 10.972,3.217 13.403,-1.728c9.828,-19.987 16.411,-41.532 22.925,-62.771c3.35,-10.918 -14.243,-15.747 -17.049,-4.7c-5.131,20.2 -10.691,40.408 -20.614,58.857c4.468,-0.576 8.936,-1.152 13.403,-1.727c-6.6,-6.282 -13.864,-11.794 -20.638,-17.88c-3.454,-3.103 -6.76,-6.433 -9.487,-10.2c-2.998,-4.142 -4.313,-6.577 -9.926,-6.852c-3.693,-0.18 -6.774,2.633 -7.837,5.967c-6.395,20.064 -12.943,41.75 -12.861,62.976c4.81,-1.992 9.619,-3.984 14.427,-5.976c-13.989,-11.135 -25.491,-25.09 -38.575,-37.232c-3.834,-3.556 -9.37,-2.675 -12.22,1.575c-13.21,19.699 -15.541,43.849 -21.884,66.132c4.732,-1.249 9.463,-2.499 14.196,-3.748c-15.823,-14.6 -28.989,-31.722 -45.301,-45.818c-3.209,-2.773 -8.065,-3.289 -11.211,0c-13.817,14.447 -25.401,31.422 -33.334,49.789c4.633,-0.597 9.268,-1.194 13.901,-1.791c-15.903,-12.631 -27.318,-28.822 -40.98,-43.624c-4.138,-4.483 -10.334,-2.445 -13.541,1.745c-9.286,12.135 -11.604,27.747 -20.663,39.989c4.066,-1.066 8.132,-2.132 12.198,-3.198c-19.849,-15.014 -37.881,-31.978 -59.131,-45.157c-3.423,-2.123 -8.627,-0.893 -10.515,2.757c-8.863,17.142 -19.248,34.018 -24.112,52.863l13.2,-3.484c-13.306,-14.661 -23.559,-31.729 -35.444,-47.508c-4.815,-6.393 -15.483,-0.739 -11.034,6.45" style="fill:white;fill-rule:nonzero;"/>
            </g>
            <g transform="matrix(4.16667,0,0,4.16667,-362.834,1180.18)">
                <path d="M0,30.333c6.25,-7.9 10.55,-16.999 16.553,-25.046l-11.095,0c9.731,17.093 14.531,36.662 27.572,51.815c2.651,3.08 7.656,2.608 10.378,0c11.6,-11.116 23.176,-22.765 36.592,-31.729c-3.328,-0.873 -6.655,-1.745 -9.983,-2.618c8.378,17.739 17.469,37.031 32.712,50.004c4.473,3.807 10.57,3.225 13.876,-1.788c6.271,-9.512 11.743,-19.52 18.011,-29.034c5.887,-8.936 13.777,-19.463 24.184,-23.391c-3.118,-1.269 -6.236,-2.537 -9.353,-3.806c10.905,21.503 17.851,46.335 34.849,64.17c4.447,4.666 13.567,2.652 14.933,-3.942c3.601,-17.379 13.501,-34.978 25.195,-48.223l-10.476,0c5.389,4.444 9.049,10.612 13.028,16.269c4.688,6.663 9.754,12.826 16.42,17.59c3.77,2.692 9.725,0.752 11.841,-3.105c11.537,-21.035 21.013,-42.937 30.428,-64.972l-12.015,1.548c9.902,9.819 15.467,23.106 28.499,29.627c4.355,2.178 10.992,0.618 12.011,-4.887c3.928,-21.219 14.034,-40.301 19.576,-61.045c-3.581,1.457 -7.162,2.914 -10.743,4.371c5.648,3.824 10.701,8.368 16.177,12.424c7.781,5.763 16.055,-7.798 7.688,-13.15c-5.73,-3.665 -10.93,-8 -16.483,-11.903c-3.919,-2.755 -9.57,0.099 -10.743,4.37c-5.669,20.651 -16.467,39.687 -21.24,60.586c4.003,-1.629 8.007,-3.258 12.011,-4.886c-10.965,-6.063 -17.712,-17.224 -25.935,-26.325c-3.163,-3.501 -9.885,-2.765 -12.014,1.548c-10.558,21.393 -20.438,43.166 -32.162,63.958c3.947,-1.035 7.893,-2.07 11.84,-3.105c-10.812,-7.919 -18.408,-19.83 -27.708,-29.391c-2.914,-2.996 -7.523,-2.684 -10.476,0c-15.504,14.091 -26.073,34.013 -31.949,53.951c4.977,-1.315 9.955,-2.629 14.932,-3.943c-14.646,-18.143 -22.306,-39.536 -33.181,-59.896c-1.6,-2.996 -6.045,-5.12 -9.354,-3.806c-13.576,5.394 -22.993,14.575 -31.548,26.211c-7.83,10.651 -13.494,22.765 -21.501,33.269c4.626,-0.596 9.251,-1.193 13.876,-1.788c-13.588,-13.275 -23.326,-28.386 -32.605,-44.876c-2.526,-4.489 -7.863,-4.27 -11.46,-1.476c-13.306,10.329 -26.316,20.743 -38.128,32.811l10.378,0c-12.466,-13.579 -17.354,-32.412 -26.855,-47.923c-2.659,-4.341 -8.354,-3.93 -11.095,0c-5.469,7.843 -9.026,16.768 -14.256,24.744c-3.455,5.269 4.833,11.801 8.798,6.788" style="fill:white;fill-rule:nonzero;"/>
            </g>
        </g>
        <g transform="matrix(-0.0993808,0,0,1,152.81,477.638)">
            <rect x="134" y="15" width="9.993" height="350" style="fill:rgb(237,27,49);"/>
        </g>
    </g>
    <g transform="matrix(1,0,0,1,4.23606,-17.6406)">
        <g id="components">
            <g>
                <g id="ix2" serif:id="ix" transform="matrix(1,0,0,1,-0.452782,23.2887)">
                    <circle cx="43.2" cy="73.162" r="11.339" style="fill:rgb(255,0,255);"/>
                </g>
                <g id="ix3" serif:id="ix" transform="matrix(0.683281,0,0,0.683281,13.7462,81.3058)">
                    <circle cx="43.2" cy="73.162" r="11.339" style="fill:rgb(255,0,255);"/>
                </g>
                <g id="ix4" serif:id="ix" transform="matrix(1,0,0,1,54.8287,23.2887)">
                    <circle cx="43.2" cy="73.162" r="11.339" style="fill:rgb(255,0,255);"/>
                </g>
                <g id="ix5" serif:id="ix" transform="matrix(0.683281,0,0,0.683281,68.511,81.3058)">
                    <circle cx="43.2" cy="73.162" r="11.339" style="fill:rgb(255,0,255);"/>
                </g>
            </g>
        </g>
    </g>
</svg>
